<?xml version="1.0" encoding="UTF-8" standalone="no"?>
<!-- Created with Inkscape (http://www.inkscape.org/) -->

<svg
   width="330.0px"
   height="330.0px"
   viewBox="0 0 330.0 330.0"
   version="1.1"
   id="SVGRoot"
   sodipodi:docname="favicon.svg"
   inkscape:version="1.1.2 (0a00cf5339, 2022-02-04)"
   xmlns:inkscape="http://www.inkscape.org/namespaces/inkscape"
   xmlns:sodipodi="http://sodipodi.sourceforge.net/DTD/sodipodi-0.dtd"
   xmlns="http://www.w3.org/2000/svg"
   xmlns:svg="http://www.w3.org/2000/svg">
  <sodipodi:namedview
     id="namedview20785"
     pagecolor="#ffffff"
     bordercolor="#666666"
     borderopacity="1.0"
     inkscape:pageshadow="2"
     inkscape:pageopacity="0.0"
     inkscape:pagecheckerboard="0"
     inkscape:document-units="px"
     showgrid="true"
     inkscape:zoom="1.3004991"
     inkscape:cx="228.37386"
     inkscape:cy="257.20894"
     inkscape:window-width="1920"
     inkscape:window-height="960"
     inkscape:window-x="0"
     inkscape:window-y="32"
     inkscape:window-maximized="1"
     inkscape:current-layer="text31912">
    <inkscape:grid
       type="xygrid"
       id="grid20791" />
  </sodipodi:namedview>
  <defs
     id="defs20780">
    <rect
       x="10"
       y="0"
       width="320"
       height="330"
       id="rect15842" />
    <rect
       x="150"
       y="210"
       width="20"
       height="120"
       id="rect6608" />
    <rect
       x="50"
       y="40"
       width="110"
       height="140"
       id="rect2741" />
    <rect
       x="10"
       y="20"
       width="240"
       height="260"
       id="rect30212" />
  </defs>
  <g
     inkscape:label="Ebene 1"
     inkscape:groupmode="layer"
     id="layer1">
    <g
       id="text30210"
       style="font-size:40px;line-height:1.25;white-space:pre;shape-inside:url(#rect30212)" />
    <g
       aria-label="P"
       id="text31912"
       style="font-size:338.667px;line-height:1.25;font-family:Pacifico;-inkscape-font-specification:'Pacifico, Normal'">
      <g
         aria-label="W"
         transform="translate(-31.993379,54.618853)"
         id="text15840"
         style="font-size:40px;font-family:sans-serif;white-space:pre;shape-inside:url(#rect15842)">
        <path
           d="m 343.89288,110.20678 q 5.82666,0 8.35999,2.53333 2.78667,2.53333 2.78667,6.58665 0,6.58666 -4.05333,11.65332 -3.8,5.06666 -12.15999,5.31999 -20.0133,0.25334 -35.97328,-3.03999 -17.73331,37.74661 -42.81328,62.82658 -24.82663,24.82663 -49.1466,24.82663 -22.2933,0 -33.43995,-23.55996 -11.14665,-23.81331 -12.66665,-63.58659 -15.19998,44.07995 -34.45329,65.61325 -18.99997,21.5333 -40.533277,21.5333 -24.319968,0 -36.733284,-30.14662 -12.413317,-30.39996 -12.413317,-81.57323 0,-37.239945 6.586658,-81.826552 1.773331,-12.66665 6.333325,-17.4799765 4.813327,-5.0666598 14.946646,-5.0666598 7.59999,0 11.653318,3.2933289 4.306661,3.2933284 4.306661,12.1599834 0,1.773331 -0.506666,6.839991 -7.59999,51.933263 -7.59999,88.413215 0,33.94662 5.826659,52.43993 5.826659,18.49331 15.706645,18.49331 8.866652,0 21.279972,-18.49331 12.66665,-18.74664 25.07997,-55.22659 12.41331,-36.733287 21.02663,-87.399886 2.02667,-11.653318 7.34666,-15.9599785 5.57333,-4.5599938 14.94665,-4.5599938 7.85332,0 11.39998,3.5466619 3.8,3.2933284 3.8,10.1333194 0,4.053328 -0.50667,6.333325 -7.09332,41.293278 -7.09332,82.586552 0,28.11997 1.77333,44.83994 2.02666,16.71998 7.34666,25.58664 5.57332,8.61332 15.95997,8.61332 12.15999,0 27.10663,-18.23998 14.94665,-18.49331 27.35997,-45.85327 -15.45332,-9.62665 -23.30664,-24.826633 -7.85332,-15.453313 -7.85332,-35.466619 0,-20.013306 6.07999,-33.693288 6.33333,-13.933315 16.97331,-20.7733054 10.89332,-6.8399908 24.06664,-6.8399908 16.21331,0 25.58663,11.6533172 9.62665,11.653318 9.62665,31.919958 0,28.626628 -12.41331,63.586581 12.91998,2.28 30.39995,2.28 z M 269.15965,60.300177 q 0,24.826633 15.95998,36.733284 9.87999,-28.373295 9.87999,-46.866604 0,-10.639985 -2.78667,-15.453312 -2.78666,-5.06666 -7.59999,-5.06666 -6.83999,0 -11.14665,8.106656 -4.30666,7.853322 -4.30666,22.546636 z"
           style="font-size:253.333px;font-family:Pacifico"
           id="path22585" />
      </g>
      <text
         xml:space="preserve"
         id="text2739"
         style="fill:black;fill-opacity:1;line-height:1.25;stroke:none;font-family:sans-serif;font-style:normal;font-weight:normal;font-size:40px;white-space:pre;shape-inside:url(#rect2741)" />
      <text
         xml:space="preserve"
         id="text6606"
         style="fill:black;fill-opacity:1;line-height:1.25;stroke:none;font-family:sans-serif;font-style:normal;font-weight:normal;font-size:40px;white-space:pre;shape-inside:url(#rect6608)" />
      <text
         xml:space="preserve"
         style="font-style:normal;font-weight:normal;font-size:40px;line-height:1.25;font-family:sans-serif;fill:#000000;fill-opacity:1;stroke:none"
         x="110"
         y="70"
         id="text8462"><tspan
           sodipodi:role="line"
           id="tspan8460"
           x="110"
           y="70" /></text>
    </g>
  </g>
</svg>
